<svg width="91" height="91" viewBox="0 0 91 91" fill="none" xmlns="http://www.w3.org/2000/svg">
<path d="M67.5296 16.9487C67.2262 16.9487 66.9229 16.8729 66.6575 16.7212C59.3775 12.9675 53.0833 11.375 45.5379 11.375C38.0304 11.375 30.9021 13.1571 24.4183 16.7212C23.5083 17.2141 22.3708 16.8729 21.84 15.9629C21.6035 15.5194 21.5505 15.0009 21.6923 14.5188C21.8341 14.0366 22.1594 13.6294 22.5983 13.3846C29.6508 9.55498 37.3858 7.58331 45.5379 7.58331C53.6142 7.58331 60.6667 9.3654 68.4017 13.3466C69.3496 13.8396 69.6908 14.9771 69.1979 15.8871C69.048 16.2031 68.8119 16.4705 68.5167 16.6583C68.2216 16.8461 67.8794 16.9468 67.5296 16.9487ZM13.2708 36.855C12.9213 36.8582 12.5777 36.7646 12.2782 36.5845C11.9786 36.4044 11.7348 36.1448 11.5738 35.8346C11.4128 35.5243 11.3409 35.1756 11.366 34.827C11.3912 34.4783 11.5124 34.1435 11.7162 33.8596C15.47 28.5512 20.2475 24.3804 25.935 21.4608C37.8408 15.3183 53.0833 15.2804 65.0271 21.4229C70.7146 24.3425 75.4921 28.4754 79.2458 33.7458C79.3913 33.9496 79.495 34.1801 79.5509 34.4242C79.6068 34.6682 79.6138 34.9209 79.5714 35.1677C79.5291 35.4145 79.4384 35.6504 79.3044 35.8619C79.1704 36.0734 78.9959 36.2563 78.7908 36.4C77.9187 37.0066 76.7433 36.8171 76.1367 35.945C72.8148 31.246 68.4046 27.4212 63.2829 24.7975C52.4008 19.2237 38.4854 19.2237 27.6412 24.8354C22.4846 27.4896 18.1621 31.2812 14.7496 36.0587C14.4462 36.5896 13.8775 36.855 13.2708 36.855ZM36.9687 82.6204C36.7201 82.6234 36.4736 82.5744 36.245 82.4764C36.0165 82.3785 35.8109 82.2338 35.6417 82.0516C32.3429 78.7529 30.5608 76.6296 28.0204 72.0416C25.4042 67.3779 24.0392 61.6904 24.0392 55.5858C24.0392 44.3246 33.67 35.1487 45.5 35.1487C57.33 35.1487 66.9608 44.3246 66.9608 55.5858C66.9608 56.6475 66.1267 57.4816 65.065 57.4816C64.0033 57.4816 63.1692 56.6475 63.1692 55.5858C63.1692 46.41 55.2446 38.9404 45.5 38.9404C35.7554 38.9404 27.8308 46.41 27.8308 55.5858C27.8308 61.0458 29.0442 66.0887 31.3571 70.1837C33.7837 74.5441 35.4521 76.4021 38.3717 79.3596C39.0921 80.1179 39.0921 81.2933 38.3717 82.0516C37.9546 82.4308 37.4617 82.6204 36.9687 82.6204ZM64.155 75.6058C59.6429 75.6058 55.6617 74.4683 52.4008 72.2312C46.7512 68.4016 43.3767 62.1833 43.3767 55.5858C43.3767 54.5241 44.2108 53.69 45.2725 53.69C46.3342 53.69 47.1683 54.5241 47.1683 55.5858C47.1683 60.9321 49.8983 65.975 54.5242 69.0841C57.2162 70.9041 60.3633 71.7762 64.155 71.7762C65.065 71.7762 66.5817 71.6625 68.0983 71.3971C69.1221 71.2075 70.1079 71.89 70.2975 72.9516C70.4871 73.9754 69.8046 74.9612 68.7429 75.1508C66.5817 75.5679 64.6858 75.6058 64.155 75.6058ZM56.5337 83.4166C56.3821 83.4166 56.1925 83.3787 56.0408 83.3408C50.0121 81.6725 46.0687 79.4354 41.9358 75.3783C39.3174 72.7919 37.241 69.7093 35.8282 66.3108C34.4154 62.9123 33.6946 59.2662 33.7079 55.5858C33.7079 49.4433 38.9404 44.4383 45.3862 44.4383C51.8321 44.4383 57.0646 49.4433 57.0646 55.5858C57.0646 59.6429 60.5908 62.9416 64.9512 62.9416C69.3117 62.9416 72.8379 59.6429 72.8379 55.5858C72.8379 41.2912 60.515 29.6887 45.3483 29.6887C34.58 29.6887 24.7217 35.6796 20.2854 44.9691C18.8067 48.0404 18.0483 51.6425 18.0483 55.5858C18.0483 58.5433 18.3137 63.2071 20.5887 69.2737C20.9679 70.2596 20.475 71.3591 19.4892 71.7004C18.5033 72.0796 17.4037 71.5487 17.0625 70.6008C15.2322 65.8064 14.2941 60.7177 14.2946 55.5858C14.2946 51.0358 15.1667 46.9029 16.8729 43.3008C21.9158 32.7221 33.1012 25.8591 45.3483 25.8591C62.6004 25.8591 76.6296 39.1679 76.6296 55.5479C76.6296 61.6904 71.3971 66.6954 64.9512 66.6954C58.5054 66.6954 53.2729 61.6904 53.2729 55.5479C53.2729 51.4908 49.7467 48.1921 45.3862 48.1921C41.0258 48.1921 37.4996 51.4908 37.4996 55.5479C37.4996 62.0316 40.0021 68.0983 44.59 72.6483C48.1921 76.2125 51.6425 78.1841 56.9887 79.6629C58.0125 79.9283 58.5812 80.99 58.3158 81.9758C58.1262 82.8479 57.33 83.4166 56.5337 83.4166Z" fill="#43B3AE"/>
</svg>
