<svg width="190" height="190" viewBox="0 0 190 190" fill="none" xmlns="http://www.w3.org/2000/svg">
	<path d="M126.667 63.3333C132.966 63.3333 139.006 65.8356 143.46 70.2895C147.914 74.7435 150.417 80.7844 150.417 87.0833V150.417C150.417 156.716 147.914 162.756 143.46 167.21C139.006 171.664 132.966 174.167 126.667 174.167H55.4167C49.1178 174.167 43.0769 171.664 38.6229 167.21C34.1689 162.756 31.6667 156.716 31.6667 150.417V87.0833C31.6667 80.7844 34.1689 74.7435 38.6229 70.2895C43.0769 65.8356 49.1178 63.3333 55.4167 63.3333V51.4583C55.4167 31.6667 71.25 15.8333 91.0417 15.8333C110.833 15.8333 126.667 31.6667 126.667 51.4583V63.3333ZM55.4167 71.25C51.2174 71.25 47.1901 72.9182 44.2208 75.8875C41.2515 78.8568 39.5833 82.8841 39.5833 87.0833V150.417C39.5833 154.616 41.2515 158.643 44.2208 161.613C47.1901 164.582 51.2174 166.25 55.4167 166.25H126.667C130.866 166.25 134.893 164.582 137.863 161.613C140.832 158.643 142.5 154.616 142.5 150.417V87.0833C142.5 82.8841 140.832 78.8568 137.863 75.8875C134.893 72.9182 130.866 71.25 126.667 71.25H55.4167ZM118.75 63.3333V51.4583C118.75 44.1096 115.831 37.0619 110.634 31.8656C105.438 26.6693 98.3904 23.75 91.0417 23.75C83.693 23.75 76.6452 26.6693 71.4489 31.8656C66.2526 37.0619 63.3333 44.1096 63.3333 51.4583V63.3333H118.75ZM91.0417 110.833C87.8922 110.833 84.8718 112.084 82.6448 114.311C80.4178 116.538 79.1667 119.559 79.1667 122.708C79.1667 125.858 80.4178 128.878 82.6448 131.105C84.8718 133.332 87.8922 134.583 91.0417 134.583C94.1911 134.583 97.2116 133.332 99.4386 131.105C101.666 128.878 102.917 125.858 102.917 122.708C102.917 119.559 101.666 116.538 99.4386 114.311C97.2116 112.084 94.1911 110.833 91.0417 110.833ZM91.0417 102.917C96.2907 102.917 101.325 105.002 105.036 108.714C108.748 112.425 110.833 117.459 110.833 122.708C110.833 127.957 108.748 132.992 105.036 136.703C101.325 140.415 96.2907 142.5 91.0417 142.5C85.7926 142.5 80.7585 140.415 77.0468 136.703C73.3352 132.992 71.25 127.957 71.25 122.708C71.25 117.459 73.3352 112.425 77.0468 108.714C80.7585 105.002 85.7926 102.917 91.0417 102.917Z" fill="#43B3AE" />
</svg>
