<svg width="84" height="84" viewBox="0 0 84 84" fill="none" xmlns="http://www.w3.org/2000/svg">
	<path fill-rule="evenodd" clip-rule="evenodd" d="M42 4.375C37.5907 4.375 33.3621 6.12656 30.2443 9.24435C27.1265 12.3621 25.375 16.5908 25.375 21C25.375 25.4092 27.1265 29.6379 30.2443 32.7556C33.3621 35.8734 37.5907 37.625 42 37.625C46.4092 37.625 50.6378 35.8734 53.7556 32.7556C56.8734 29.6379 58.625 25.4092 58.625 21C58.625 16.5908 56.8734 12.3621 53.7556 9.24435C50.6378 6.12656 46.4092 4.375 42 4.375ZM30.625 21C30.625 17.9832 31.8234 15.0899 33.9566 12.9567C36.0898 10.8234 38.9831 9.625 42 9.625C45.0168 9.625 47.9101 10.8234 50.0433 12.9567C52.1765 15.0899 53.375 17.9832 53.375 21C53.375 24.0168 52.1765 26.9101 50.0433 29.0433C47.9101 31.1766 45.0168 32.375 42 32.375C38.9831 32.375 36.0898 31.1766 33.9566 29.0433C31.8234 26.9101 30.625 24.0168 30.625 21ZM42 42.875C33.9045 42.875 26.4425 44.716 20.916 47.824C15.47 50.89 11.375 55.531 11.375 61.25V61.607C11.3715 65.674 11.368 70.777 15.8445 74.424C18.046 76.216 21.1295 77.4935 25.2945 78.3335C29.4665 79.1805 34.909 79.625 42 79.625C49.091 79.625 54.53 79.1805 58.709 78.3335C62.874 77.4935 65.954 76.216 68.159 74.424C72.6355 70.777 72.6284 65.674 72.625 61.607V61.25C72.625 55.531 68.53 50.89 63.0875 47.824C57.5575 44.716 50.099 42.875 42 42.875ZM16.625 61.25C16.625 58.2715 18.802 55.0375 23.4885 52.402C28.0945 49.812 34.6325 48.125 42.0035 48.125C49.3675 48.125 55.9055 49.812 60.5115 52.402C65.2015 55.0375 67.375 58.2715 67.375 61.25C67.375 65.828 67.235 68.404 64.841 70.35C63.5459 71.407 61.376 72.4395 57.666 73.1885C53.9665 73.9375 48.909 74.375 42 74.375C35.091 74.375 30.03 73.9375 26.334 73.1885C22.624 72.4395 20.454 71.407 19.159 70.3535C16.765 68.404 16.625 65.828 16.625 61.25Z" fill="#43B3AE" />
</svg>
