<svg width="389" height="389" viewBox="0 0 389 389" fill="none" xmlns="http://www.w3.org/2000/svg">
<path d="M48.625 48.625H97.25V97.25H48.625V48.625Z" fill="#43B3AE"/>
<path d="M145.875 0V145.875H0V0H145.875ZM121.562 24.3125H24.3125V121.562H121.562V24.3125ZM97.25 291.75H48.625V340.375H97.25V291.75Z" fill="#43B3AE"/>
<path d="M145.875 243.125V389H0V243.125H145.875ZM24.3125 267.438V364.688H121.562V267.438H24.3125ZM291.75 48.625H340.375V97.25H291.75V48.625Z" fill="#43B3AE"/>
<path d="M243.125 0V145.875H389V0H243.125ZM364.688 24.3125V121.562H267.438V24.3125H364.688ZM194.5 24.3125V0H218.812V48.625H194.5V97.25H170.188V24.3125H194.5ZM194.5 145.875V97.25H218.812V145.875H194.5ZM145.875 194.5V170.188H170.188V145.875H194.5V194.5H218.812V170.188H340.375V194.5H243.125V218.812H170.188V194.5H145.875ZM145.875 194.5V218.812H48.625V194.5H24.3125V218.812H0V170.188H72.9375V194.5H145.875ZM389 218.812H364.688V170.188H389V218.812ZM364.688 218.812H340.375V267.438H389V243.125H364.688V218.812ZM267.438 218.812H316.062V243.125H291.75V267.438H267.438V218.812ZM316.062 291.75V267.438H291.75V291.75H267.438V316.062H218.812V340.375H291.75V291.75H316.062ZM316.062 291.75H389V316.062H340.375V340.375H316.062V291.75ZM218.812 267.438V291.75H243.125V243.125H170.188V267.438H218.812Z" fill="#43B3AE"/>
<path d="M170.188 291.75H194.5V364.688H291.75V389H170.188V291.75ZM389 340.375V389H316.062V364.688H364.688V340.375H389Z" fill="#43B3AE"/>
</svg>
